# xmcd CD database file
#
# Track frame offsets:
#	150
#	1651
#	32759
#	66494
#	97995
#	104763
#	133937
#	165632
#	201280
#
# Disc length: 3021 seconds
#
# Revision: 1
# Processed by: cddbd v1.5PL3 Copyright (c) Steve Scherf et al.
# Submitted via: CDex 1.50
#
DISCID=7a0bcb09
DTITLE=SEGA - (セガサターン) OutRun
DYEAR=1996
DGENRE=Game
TTITLE0=DATA
TTITLE1=Magical Sound Shower
TTITLE2=Splash Wave
TTITLE3=Passing Breeze
TTITLE4=Lakeside Memory
TTITLE5=Magical Sound Shower Arrange
TTITLE6=Splash Wave Arrange
TTITLE7=Passing Breeze
TTITLE8=Lakeside Memory Arrange
EXTD=YEAR: 1996
EXTT0=
EXTT1=
EXTT2=
EXTT3=
EXTT4=
EXTT5=
EXTT6=
EXTT7=
EXTT8=
PLAYORDER=
